<?xml version="1.0" encoding="utf-8"?>
<svg id="master-artboard" viewBox="0 0 1240 925" xmlns="http://www.w3.org/2000/svg" width="1240px" height="925px">
<title>social-media-icons-all-updated-tiktok</title>
<path class="cls-2" d="M987.46,905.21c.13-.36.14-.6.16-8.11,0,0,0-3.32,0-3.35a2,2,0,0,0-1.34-1.89,2.07,2.07,0,0,0-2.38.54s-1.56,1.86-1.57,1.86c-5.38,6.32-5.6,6.61-5.73,7a1.38,1.38,0,0,0-.09.69,1.82,1.82,0,0,0,.43,1c1.25,1.48,7.23,3.68,9.14,3.36A1.68,1.68,0,0,0,987.46,905.21Z" transform="matrix(0.9999999999999999, 0, 0, 0.9999999999999999, -1.1368683772161603e-13, 0)" style="fill: rgb(255, 255, 255);"/>
<g id="WhatsApp-7" data-name="WhatsApp" transform="matrix(1, 0, 0, 1, 183.16159368933398, -468.3703984551455)">
<path d="M 610 882.5 A 42.5 42.5 0 0 1 567.5 925 A 42.5 42.5 0 0 1 525 882.5 A 42.5 42.5 0 0 1 567.5 840 A 42.5 42.5 0 0 1 610 882.5 Z" id="back-54" data-name="back" class="cls-1" style="fill: rgb(38, 38, 38);"/>
<g id="whatsApp-8" data-name="whatsApp"><path class="cls-2" d="M543.7,906.41l3.36-12.28A23.7,23.7,0,1,1,567.6,906h0a23.67,23.67,0,0,1-11.33-2.88Zm13.15-7.58.72.42a19.59,19.59,0,0,0,10,2.75h0a19.7,19.7,0,0,0,13.93-33.63,19.5,19.5,0,0,0-13.92-5.78,19.71,19.71,0,0,0-16.7,30.18l.47.74-2,7.27Z" transform="translate(0 0)" style="fill: rgb(255, 255, 255);"/>
<path class="cls-3" d="M579.54,887.94c-.15-.25-.54-.4-1.13-.69s-3.51-1.73-4-1.93-.94-.3-1.33.3-1.53,1.92-1.88,2.32-.69.44-1.28.15a16.21,16.21,0,0,1-4.76-2.94,18.13,18.13,0,0,1-3.3-4.1.86.86,0,0,1,.26-1.21c.27-.27.59-.69.89-1a4.32,4.32,0,0,0,.59-1,1.08,1.08,0,0,0,0-1c-.15-.29-1.33-3.21-1.82-4.39s-1-1-1.34-1-.74,0-1.13,0a2.17,2.17,0,0,0-1.58.74,6.66,6.66,0,0,0-2.07,4.94c0,2.92,2.12,5.73,2.41,6.13s4.18,6.37,10.12,8.94a35.85,35.85,0,0,0,3.38,1.25,8.15,8.15,0,0,0,3.73.23c1.14-.17,3.5-1.43,4-2.81A4.9,4.9,0,0,0,579.54,887.94Z" transform="translate(0 0)" style="fill: rgb(255, 255, 255); fill-rule: evenodd;"/></g></g>
<path d="M 295 882.5 A 42.5 42.5 0 0 1 252.5 925 A 42.5 42.5 0 0 1 210 882.5 A 42.5 42.5 0 0 1 252.5 840 A 42.5 42.5 0 0 1 295 882.5 Z" id="back-57" data-name="back" class="cls-1" style="fill: rgb(38, 38, 38);" transform="matrix(1, 0, 0, 1, 502.3860809940214, -368.93979542780176)"/>
<path id="Twitter-8" data-name="Twitter" class="cls-2" d="M276.3,867.74a19.83,19.83,0,0,1-5.61,1.54,9.76,9.76,0,0,0,4.29-5.41,19.46,19.46,0,0,1-6.2,2.37,9.77,9.77,0,0,0-16.89,6.68,10.23,10.23,0,0,0,.25,2.23A27.78,27.78,0,0,1,232,865a9.77,9.77,0,0,0,3,13,9.78,9.78,0,0,1-4.43-1.22v.13a9.77,9.77,0,0,0,7.84,9.57,9.95,9.95,0,0,1-4.41.17,9.76,9.76,0,0,0,9.12,6.78A19.6,19.6,0,0,1,231,897.59a19.84,19.84,0,0,1-2.33-.14,27.55,27.55,0,0,0,15,4.39c18,0,27.79-14.88,27.79-27.78,0-.43,0-.85,0-1.27A19.82,19.82,0,0,0,276.3,867.74Z" transform="matrix(1, 0, 0, 1, 502.3860809940214, -368.93979542780176)" style="fill: rgb(255, 255, 255);"/>
<path d="M 85 777.5 A 42.5 42.5 0 0 1 42.5 820 A 42.5 42.5 0 0 1 0 777.5 A 42.5 42.5 0 0 1 42.5 735 A 42.5 42.5 0 0 1 85 777.5 Z" id="back-65" data-name="back" class="cls-1" style="fill: rgb(38, 38, 38);" transform="matrix(1, 0, 0, 1, 401.647204651248, -367.6315068535829)"/>
<path class="cls-2" d="M42.5,758c6.35,0,7.11,0,9.62.14a12.93,12.93,0,0,1,4.42.82,7.91,7.91,0,0,1,4.51,4.51,12.93,12.93,0,0,1,.82,4.42c.12,2.51.14,3.27.14,9.62s0,7.11-.14,9.62a12.93,12.93,0,0,1-.82,4.42,7.91,7.91,0,0,1-4.51,4.51,12.93,12.93,0,0,1-4.42.82c-2.51.12-3.26.14-9.62.14s-7.11,0-9.62-.14a12.93,12.93,0,0,1-4.42-.82A7.91,7.91,0,0,1,24,791.54a12.93,12.93,0,0,1-.82-4.42c-.12-2.51-.14-3.27-.14-9.62s0-7.11.14-9.62a12.93,12.93,0,0,1,.82-4.42A7.91,7.91,0,0,1,28.46,759a12.93,12.93,0,0,1,4.42-.82c2.51-.12,3.27-.14,9.62-.14m0-4.29c-6.46,0-7.27,0-9.81.14A17.49,17.49,0,0,0,26.91,755a12.1,12.1,0,0,0-7,7,17.49,17.49,0,0,0-1.11,5.78c-.11,2.54-.14,3.35-.14,9.81s0,7.27.14,9.81A17.49,17.49,0,0,0,20,793.09a12.1,12.1,0,0,0,7,7,17.49,17.49,0,0,0,5.78,1.11c2.54.11,3.35.14,9.81.14s7.27,0,9.81-.14a17.49,17.49,0,0,0,5.78-1.11,12.1,12.1,0,0,0,7-7,17.49,17.49,0,0,0,1.11-5.78c.11-2.54.14-3.35.14-9.81s0-7.27-.14-9.81a17.49,17.49,0,0,0-1.11-5.78,12.1,12.1,0,0,0-7-7,17.49,17.49,0,0,0-5.78-1.11c-2.54-.11-3.35-.14-9.81-.14Z" transform="matrix(1, 0, 0, 1, 401.647204651248, -367.6315068535829)" style="fill: rgb(255, 255, 255);"/>
<path class="cls-2" d="M42.5,765.28A12.22,12.22,0,1,0,54.72,777.5,12.22,12.22,0,0,0,42.5,765.28Zm0,20.15a7.93,7.93,0,1,1,7.93-7.93A7.93,7.93,0,0,1,42.5,785.43Z" transform="matrix(1, 0, 0, 1, 401.647204651248, -367.6315068535829)" style="fill: rgb(255, 255, 255);"/>
<path d="M 58.060001 764.799988 A 2.86 2.86 0 0 1 55.200001 767.659988 A 2.86 2.86 0 0 1 52.340001 764.799988 A 2.86 2.86 0 0 1 55.200001 761.939988 A 2.86 2.86 0 0 1 58.060001 764.799988 Z" class="cls-2" style="fill: rgb(255, 255, 255);" transform="matrix(1, 0, 0, 1, 401.647204651248, -367.6315068535829)"/><path class="cls-2" d="M582.66,666H587l0,4.32,4.32,0v4.3l-4.32,0,0,4.33h-4.3c0-1.45,0-2.88,0-4.32l-4.32,0v-4.3l4.32,0c0-1.44,0-2.88,0-4.32" transform="matrix(0.9999999999999999, 0, 0, 0.9999999999999999, -1.1368683772161603e-13, 0)" style="fill: rgb(255, 255, 255);"/>
<path d="M 400 672.5 A 42.5 42.5 0 0 1 357.5 715 A 42.5 42.5 0 0 1 315 672.5 A 42.5 42.5 0 0 1 357.5 630 A 42.5 42.5 0 0 1 400 672.5 Z" id="back-68" data-name="back" class="cls-1" style="fill: rgb(38, 38, 38);" transform="matrix(1, 0, 0, 1, 82.42271734656055, -162.2287968926454)"/>
<path id="Facebook-8" data-name="Facebook" class="cls-2" d="M378.18,649.26H336.82a2.56,2.56,0,0,0-2.56,2.56v41.36a2.56,2.56,0,0,0,2.56,2.56h22.27v-18H353v-7h6.06v-5.18c0-6,3.66-9.27,9-9.27a48.14,48.14,0,0,1,5.41.28v6.27h-3.71c-2.92,0-3.48,1.39-3.48,3.42v4.48h6.95l-.91,7h-6v18h11.85a2.56,2.56,0,0,0,2.56-2.56V651.82A2.56,2.56,0,0,0,378.18,649.26Z" transform="matrix(1, 0, 0, 1, 82.42271734656055, -162.2287968926454)" style="fill: rgb(255, 255, 255);"/>
<path d="M 295 567.5 A 42.5 42.5 0 0 1 252.5 610 A 42.5 42.5 0 0 1 210 567.5 A 42.5 42.5 0 0 1 252.5 525 A 42.5 42.5 0 0 1 295 567.5 Z" id="back-75" data-name="back" class="cls-4" style="fill: rgb(146, 146, 146);" transform="matrix(1, 0, 0, 1, 600.5083649295684, -54.94846241998914)"/><path id="Twitter-10" data-name="Twitter" class="cls-2" d="M276.3,552.74a19.83,19.83,0,0,1-5.61,1.54,9.76,9.76,0,0,0,4.29-5.41,19.46,19.46,0,0,1-6.2,2.37,9.77,9.77,0,0,0-16.89,6.68,10.23,10.23,0,0,0,.25,2.23A27.78,27.78,0,0,1,232,550a9.77,9.77,0,0,0,3,13,9.78,9.78,0,0,1-4.43-1.22v.13a9.77,9.77,0,0,0,7.84,9.57,9.95,9.95,0,0,1-4.41.17,9.76,9.76,0,0,0,9.12,6.78A19.6,19.6,0,0,1,231,582.59a19.84,19.84,0,0,1-2.33-.14,27.55,27.55,0,0,0,15,4.39c18,0,27.79-14.88,27.79-27.78,0-.43,0-.85,0-1.27A19.82,19.82,0,0,0,276.3,552.74Z" transform="matrix(1, 0, 0, 1, 600.5083649295684, -54.94846241998914)" style="fill: rgb(255, 255, 255);"/><path d="M 85 462.5 A 42.5 42.5 0 0 1 42.5 505 A 42.5 42.5 0 0 1 0 462.5 A 42.5 42.5 0 0 1 42.5 420 A 42.5 42.5 0 0 1 85 462.5 Z" id="back-83" data-name="back" class="cls-4" style="fill: rgb(146, 146, 146);" transform="matrix(1, 0, 0, 1, 498.4612000125761, -53.64017384577039)"/><path class="cls-2" d="M42.5,443c6.35,0,7.11,0,9.62.14a12.93,12.93,0,0,1,4.42.82,7.91,7.91,0,0,1,4.51,4.51,12.93,12.93,0,0,1,.82,4.42c.12,2.51.14,3.27.14,9.62s0,7.11-.14,9.62a12.93,12.93,0,0,1-.82,4.42,7.91,7.91,0,0,1-4.51,4.51,12.93,12.93,0,0,1-4.42.82c-2.51.12-3.26.14-9.62.14s-7.11,0-9.62-.14a12.93,12.93,0,0,1-4.42-.82A7.91,7.91,0,0,1,24,476.54a12.93,12.93,0,0,1-.82-4.42c-.12-2.51-.14-3.27-.14-9.62s0-7.11.14-9.62a12.93,12.93,0,0,1,.82-4.42A7.91,7.91,0,0,1,28.46,444a12.93,12.93,0,0,1,4.42-.82c2.51-.12,3.27-.14,9.62-.14m0-4.29c-6.46,0-7.27,0-9.81.14A17.49,17.49,0,0,0,26.91,440a12.1,12.1,0,0,0-7,7,17.49,17.49,0,0,0-1.11,5.78c-.11,2.54-.14,3.35-.14,9.81s0,7.27.14,9.81A17.49,17.49,0,0,0,20,478.09a12.1,12.1,0,0,0,7,7,17.49,17.49,0,0,0,5.78,1.11c2.54.11,3.35.14,9.81.14s7.27,0,9.81-.14a17.49,17.49,0,0,0,5.78-1.11,12.1,12.1,0,0,0,7-7,17.49,17.49,0,0,0,1.11-5.78c.11-2.54.14-3.35.14-9.81s0-7.27-.14-9.81a17.49,17.49,0,0,0-1.11-5.78,12.1,12.1,0,0,0-7-7,17.49,17.49,0,0,0-5.78-1.11c-2.54-.11-3.35-.14-9.81-.14Z" transform="matrix(1, 0, 0, 1, 498.4612000125761, -53.64017384577039)" style="fill: rgb(255, 255, 255);"/><path class="cls-2" d="M42.5,450.28A12.22,12.22,0,1,0,54.72,462.5,12.22,12.22,0,0,0,42.5,450.28Zm0,20.15a7.93,7.93,0,1,1,7.93-7.93A7.93,7.93,0,0,1,42.5,470.43Z" transform="matrix(1, 0, 0, 1, 498.4612000125761, -53.64017384577039)" style="fill: rgb(255, 255, 255);"/><path d="M 58.060001 449.799988 A 2.86 2.86 0 0 1 55.200001 452.659988 A 2.86 2.86 0 0 1 52.340001 449.799988 A 2.86 2.86 0 0 1 55.200001 446.939988 A 2.86 2.86 0 0 1 58.060001 449.799988 Z" class="cls-2" style="fill: rgb(255, 255, 255);" transform="matrix(1, 0, 0, 1, 498.4612000125761, -53.64017384577039)"/><path class="cls-2" d="M582.66,351H587l0,4.32,4.32,0v4.3l-4.32,0,0,4.33h-4.3c0-1.45,0-2.88,0-4.32l-4.32,0v-4.3l4.32,0c0-1.44,0-2.88,0-4.32" transform="matrix(0.9999999999999999, 0, 0, 0.9999999999999999, -1.1368683772161603e-13, 0)" style="fill: rgb(255, 255, 255);"/><path d="M 400 357.5 A 42.5 42.5 0 0 1 357.5 400 A 42.5 42.5 0 0 1 315 357.5 A 42.5 42.5 0 0 1 357.5 315 A 42.5 42.5 0 0 1 400 357.5 Z" id="back-86" data-name="back" class="cls-4" style="fill: rgb(146, 146, 146);" transform="matrix(1, 0, 0, 1, 184.4698898929472, 151.7624598212218)"/><path id="Facebook-10" data-name="Facebook" class="cls-2" d="M378.18,334.26H336.82a2.56,2.56,0,0,0-2.56,2.56v41.36a2.56,2.56,0,0,0,2.56,2.56h22.27v-18H353v-7h6.06v-5.18c0-6,3.66-9.27,9-9.27a48.14,48.14,0,0,1,5.41.28v6.27h-3.71c-2.92,0-3.48,1.39-3.48,3.42v4.48h6.95l-.91,7h-6v18h11.85a2.56,2.56,0,0,0,2.56-2.56V336.82A2.56,2.56,0,0,0,378.18,334.26Z" transform="matrix(1, 0, 0, 1, 184.4698898929472, 151.7624598212218)" style="fill: rgb(255, 255, 255);"/><g id="WhatsApp-11" data-name="WhatsApp" transform="matrix(1, 0, 0, 1, 81.11439825476364, 159.61223704290148)"><path d="M 610 252.5 A 42.5 42.5 0 0 1 567.5 295 A 42.5 42.5 0 0 1 525 252.5 A 42.5 42.5 0 0 1 567.5 210 A 42.5 42.5 0 0 1 610 252.5 Z" id="back-90" data-name="back" class="cls-5" style="fill: rgb(37, 211, 102);"/><g id="whatsApp-12" data-name="whatsApp"><path class="cls-2" d="M543.7,276.41l3.36-12.28A23.7,23.7,0,1,1,567.6,276h0a23.67,23.67,0,0,1-11.33-2.88Zm13.15-7.58.72.42a19.59,19.59,0,0,0,10,2.75h0a19.7,19.7,0,0,0,13.93-33.63,19.5,19.5,0,0,0-13.92-5.78,19.71,19.71,0,0,0-16.7,30.18l.47.74-2,7.27Z" transform="translate(0 0)" style="fill: rgb(255, 255, 255);"/><path class="cls-3" d="M579.54,257.94c-.15-.25-.54-.4-1.13-.69s-3.51-1.73-4-1.93-.94-.3-1.33.3-1.53,1.92-1.88,2.32-.69.44-1.28.15a16.21,16.21,0,0,1-4.76-2.94,18.13,18.13,0,0,1-3.3-4.1.86.86,0,0,1,.26-1.21c.27-.27.59-.69.89-1a4.32,4.32,0,0,0,.59-1,1.08,1.08,0,0,0,0-1c-.15-.29-1.33-3.21-1.82-4.39s-1-1-1.34-1-.74,0-1.13,0a2.17,2.17,0,0,0-1.58.74,6.66,6.66,0,0,0-2.07,4.94c0,2.92,2.12,5.73,2.41,6.13s4.18,6.37,10.12,8.94a35.85,35.85,0,0,0,3.38,1.25,8.15,8.15,0,0,0,3.73.23c1.14-.17,3.5-1.43,4-2.81A4.9,4.9,0,0,0,579.54,257.94Z" transform="translate(0 0)" style="fill: rgb(255, 255, 255); fill-rule: evenodd;"/></g></g><path d="M 295 252.5 A 42.5 42.5 0 0 1 252.5 295 A 42.5 42.5 0 0 1 210 252.5 A 42.5 42.5 0 0 1 252.5 210 A 42.5 42.5 0 0 1 295 252.5 Z" id="back-93" data-name="back" class="cls-10" style="fill: rgb(85, 172, 238);" transform="matrix(1, 0, 0, 1, 401.6472122806425, 260.35112101506945)"/><path id="Twitter-12" data-name="Twitter" class="cls-2" d="M276.3,237.74a19.83,19.83,0,0,1-5.61,1.54,9.76,9.76,0,0,0,4.29-5.41,19.46,19.46,0,0,1-6.2,2.37,9.77,9.77,0,0,0-16.89,6.68,10.23,10.23,0,0,0,.25,2.23A27.78,27.78,0,0,1,232,235a9.77,9.77,0,0,0,3,13,9.78,9.78,0,0,1-4.43-1.22v.13a9.77,9.77,0,0,0,7.84,9.57,9.95,9.95,0,0,1-4.41.17,9.76,9.76,0,0,0,9.12,6.78A19.6,19.6,0,0,1,231,267.59a19.84,19.84,0,0,1-2.33-.14,27.55,27.55,0,0,0,15,4.39c18,0,27.79-14.88,27.79-27.78,0-.43,0-.85,0-1.27A19.82,19.82,0,0,0,276.3,237.74Z" transform="matrix(1, 0, 0, 1, 401.6472122806425, 260.35112101506945)" style="fill: rgb(255, 255, 255);"/><path d="M 85 147.5 A 42.5 42.5 0 0 1 42.5 190 A 42.5 42.5 0 0 1 0 147.5 A 42.5 42.5 0 0 1 42.5 105 A 42.5 42.5 0 0 1 85 147.5 Z" id="back-101" data-name="back" class="cls-17" style="fill: rgb(213, 0, 96);" transform="matrix(1, 0, 0, 1, 301.9083321231718, 262.967713422296)"/><path class="cls-2" d="M42.5,128c6.35,0,7.11,0,9.62.14a12.93,12.93,0,0,1,4.42.82,7.91,7.91,0,0,1,4.51,4.51,12.93,12.93,0,0,1,.82,4.42c.12,2.51.14,3.27.14,9.62s0,7.11-.14,9.62a12.93,12.93,0,0,1-.82,4.42,7.91,7.91,0,0,1-4.51,4.51,12.93,12.93,0,0,1-4.42.82c-2.51.12-3.26.14-9.62.14s-7.11,0-9.62-.14a12.93,12.93,0,0,1-4.42-.82A7.91,7.91,0,0,1,24,161.54a12.93,12.93,0,0,1-.82-4.42c-.12-2.51-.14-3.27-.14-9.62s0-7.11.14-9.62a12.93,12.93,0,0,1,.82-4.42A7.91,7.91,0,0,1,28.46,129a12.93,12.93,0,0,1,4.42-.82c2.51-.12,3.27-.14,9.62-.14m0-4.29c-6.46,0-7.27,0-9.81.14A17.49,17.49,0,0,0,26.91,125a12.1,12.1,0,0,0-7,7,17.49,17.49,0,0,0-1.11,5.78c-.11,2.54-.14,3.35-.14,9.81s0,7.27.14,9.81A17.49,17.49,0,0,0,20,163.09a12.1,12.1,0,0,0,7,7,17.49,17.49,0,0,0,5.78,1.11c2.54.11,3.35.14,9.81.14s7.27,0,9.81-.14a17.49,17.49,0,0,0,5.78-1.11,12.1,12.1,0,0,0,7-7,17.49,17.49,0,0,0,1.11-5.78c.11-2.54.14-3.35.14-9.81s0-7.27-.14-9.81a17.49,17.49,0,0,0-1.11-5.78,12.1,12.1,0,0,0-7-7,17.49,17.49,0,0,0-5.78-1.11c-2.54-.11-3.35-.14-9.81-.14Z" transform="matrix(1, 0, 0, 1, 300.9083321231719, 262.967713422296)" style="fill: rgb(255, 255, 255);"/><path class="cls-2" d="M42.5,135.28A12.22,12.22,0,1,0,54.72,147.5,12.22,12.22,0,0,0,42.5,135.28Zm0,20.15a7.93,7.93,0,1,1,7.93-7.93A7.93,7.93,0,0,1,42.5,155.43Z" transform="matrix(1, 0, 0, 1, 300.9083321231719, 262.967713422296)" style="fill: rgb(255, 255, 255);"/><path d="M 58.060001 134.800003 A 2.86 2.86 0 0 1 55.200001 137.660003 A 2.86 2.86 0 0 1 52.340001 134.800003 A 2.86 2.86 0 0 1 55.200001 131.940003 A 2.86 2.86 0 0 1 58.060001 134.800003 Z" class="cls-2" style="fill: rgb(255, 255, 255);" transform="matrix(1, 0, 0, 1, 300.9083321231719, 262.967713422296)"/><path d="M 400 42.5 A 42.5 42.5 0 0 1 357.5 85 A 42.5 42.5 0 0 1 315 42.5 A 42.5 42.5 0 0 1 357.5 0 A 42.5 42.5 0 0 1 400 42.5 Z" id="back-104" data-name="back" class="cls-20" style="fill: rgb(58, 90, 153);" transform="matrix(1, 0, 0, 1, -13.082974181759766, 467.06205851506945)"/><path id="Facebook-12" data-name="Facebook" class="cls-2" d="M378.18,19.26H336.82a2.56,2.56,0,0,0-2.56,2.56V63.18a2.56,2.56,0,0,0,2.56,2.56h22.27v-18H353v-7h6.06V35.55c0-6,3.66-9.27,9-9.27a48.14,48.14,0,0,1,5.41.28v6.27h-3.71c-2.92,0-3.48,1.39-3.48,3.42v4.48h6.95l-.91,7h-6v18h11.85a2.56,2.56,0,0,0,2.56-2.56V21.82A2.56,2.56,0,0,0,378.18,19.26Z" transform="matrix(1, 0, 0, 1, -13.082974181759766, 467.06205851506945)" style="fill: rgb(255, 255, 255);"/><g id="WhatsApp-9" data-name="WhatsApp" transform="matrix(1, 0, 0, 1, 286.5170643466826, -154.3790654473329)"><path d="M 610 567.5 A 42.5 42.5 0 0 1 567.5 610 A 42.5 42.5 0 0 1 525 567.5 A 42.5 42.5 0 0 1 567.5 525 A 42.5 42.5 0 0 1 610 567.5 Z" id="back-72" data-name="back" class="cls-4" style="fill: rgb(146, 146, 146);"/><g id="whatsApp-10" data-name="whatsApp"><path class="cls-2" d="M543.7,591.41l3.36-12.28A23.7,23.7,0,1,1,567.6,591h0a23.67,23.67,0,0,1-11.33-2.88Zm13.15-7.58.72.42a19.59,19.59,0,0,0,10,2.75h0a19.7,19.7,0,0,0,13.93-33.63,19.5,19.5,0,0,0-13.92-5.78,19.71,19.71,0,0,0-16.7,30.18l.47.74-2,7.27Z" transform="translate(0 0)" style="fill: rgb(255, 255, 255);"/><path class="cls-3" d="M579.54,572.94c-.15-.25-.54-.4-1.13-.69s-3.51-1.73-4-1.93-.94-.3-1.33.3-1.53,1.92-1.88,2.32-.69.44-1.28.15a16.21,16.21,0,0,1-4.76-2.94,18.13,18.13,0,0,1-3.3-4.1.86.86,0,0,1,.26-1.21c.27-.27.59-.69.89-1a4.32,4.32,0,0,0,.59-1,1.08,1.08,0,0,0,0-1c-.15-.29-1.33-3.21-1.82-4.39s-1-1-1.34-1-.74,0-1.13,0a2.17,2.17,0,0,0-1.58.74,6.66,6.66,0,0,0-2.07,4.94c0,2.92,2.12,5.73,2.41,6.13s4.18,6.37,10.12,8.94a35.85,35.85,0,0,0,3.38,1.25,8.15,8.15,0,0,0,3.73.23c1.14-.17,3.5-1.43,4-2.81A4.9,4.9,0,0,0,579.54,572.94Z" transform="translate(0 0)" style="fill: rgb(255, 255, 255); fill-rule: evenodd;"/></g></g></svg>